<?xml version="1.0" encoding="utf-8"?>
<!-- Generator: Adobe Illustrator 25.4.1, SVG Export Plug-In . SVG Version: 6.00 Build 0)  -->
<svg version="1.1" id="Calque_1" xmlns="http://www.w3.org/2000/svg" xmlns:xlink="http://www.w3.org/1999/xlink" x="0px" y="0px"
	 viewBox="0 0 481.89 283.46" style="enable-background:new 0 0 481.89 283.46;" xml:space="preserve">
<style type="text/css">
	.st0{fill:#202126;}
	.st1{fill:#1A9B69;}
</style>
<g>
	<path class="st0" d="M210.86,121.26c0,3.48-0.57,6.71-1.72,9.68c-1.15,2.97-2.78,5.54-4.88,7.71s-4.64,3.86-7.59,5.08
		c-2.96,1.22-6.25,1.83-9.86,1.83c-3.6,0-6.87-0.61-9.83-1.83c-2.96-1.22-5.5-2.91-7.61-5.08c-2.12-2.17-3.75-4.74-4.91-7.71
		c-1.16-2.97-1.74-6.2-1.74-9.68c0-3.49,0.58-6.71,1.74-9.68c1.16-2.97,2.8-5.54,4.91-7.71c2.11-2.17,4.65-3.86,7.61-5.08
		c2.96-1.22,6.23-1.82,9.83-1.82c2.41,0,4.68,0.28,6.8,0.84s4.08,1.35,5.85,2.37c1.77,1.02,3.37,2.26,4.78,3.71
		c1.41,1.46,2.61,3.08,3.6,4.88c0.99,1.8,1.74,3.75,2.25,5.85C210.6,116.72,210.86,118.93,210.86,121.26z M201.81,121.26
		c0-2.61-0.35-4.95-1.05-7.02c-0.7-2.07-1.7-3.83-2.99-5.28c-1.29-1.45-2.87-2.55-4.72-3.32s-3.94-1.15-6.26-1.15
		s-4.41,0.39-6.26,1.15c-1.85,0.77-3.43,1.87-4.73,3.32c-1.3,1.45-2.31,3.21-3.01,5.28c-0.7,2.07-1.05,4.41-1.05,7.02
		c0,2.61,0.35,4.95,1.05,7.02c0.7,2.07,1.7,3.82,3.01,5.26c1.3,1.44,2.88,2.54,4.73,3.3c1.85,0.77,3.94,1.15,6.26,1.15
		s4.41-0.38,6.26-1.15c1.85-0.77,3.43-1.87,4.72-3.3c1.29-1.44,2.29-3.19,2.99-5.26C201.47,126.2,201.81,123.86,201.81,121.26z"/>
	<path class="st0" d="M280.92,97.49l-14.76,47.54h-7.99l-10.39-32.48c-0.29-0.79-0.55-1.75-0.79-2.89
		c-0.13,0.55-0.26,1.06-0.39,1.55c-0.13,0.48-0.28,0.93-0.43,1.35l-10.49,32.48h-8.02l-14.73-47.54h7.4c0.77,0,1.41,0.18,1.92,0.54
		c0.52,0.36,0.86,0.85,1.04,1.46l8.09,28.44c0.17,0.7,0.34,1.46,0.51,2.29c0.16,0.82,0.33,1.68,0.51,2.58
		c0.18-0.92,0.37-1.78,0.57-2.6c0.21-0.81,0.43-1.57,0.67-2.27l9.34-28.44c0.18-0.5,0.52-0.96,1.04-1.38
		c0.52-0.42,1.15-0.62,1.89-0.62h2.6c0.77,0,1.39,0.19,1.87,0.56c0.48,0.37,0.84,0.86,1.08,1.45l9.3,28.44
		c0.46,1.36,0.88,2.93,1.25,4.7c0.28-1.73,0.6-3.3,0.95-4.7l8.09-28.44c0.13-0.55,0.47-1.02,1-1.41c0.54-0.4,1.18-0.59,1.92-0.59
		H280.92z"/>
	<path class="st0" d="M314.61,137.73v7.3h-27.84V97.49h8.84v40.24H314.61z"/>
	<path class="st0" d="M167.58,186.12h-4v-25.88h18.01v3.64h-14.01v7.22h10.99v3.64h-10.99V186.12z"/>
	<path class="st0" d="M197.34,159.86c7.87,0,13.7,5.64,13.7,13.46c0,7.76-5.83,13.19-13.7,13.19c-7.74,0-13.57-5.43-13.57-13.19
		C183.77,165.5,189.6,159.86,197.34,159.86z M197.34,182.71c5.7,0,9.51-3.79,9.51-9.43c0-5.62-3.81-9.62-9.51-9.62
		c-5.55,0-9.34,4-9.34,9.62C188,178.92,191.79,182.71,197.34,182.71z"/>
	<path class="st0" d="M227.27,178.19h-7.13v7.93h-4v-25.88h11.72c4.86,0,9.03,2.84,9.03,9.03c0,4.13-2.29,7.03-5.45,8.27l7.09,8.56
		h-4.9L227.27,178.19z M220.14,163.88v10.71h6.97c3.09,0,5.6-2,5.6-5.28c0-3.62-2.52-5.43-5.6-5.43H220.14z"/>
	<path class="st0" d="M256.45,177.56l-9.62-10.65v19.21h-4v-25.88h3.6l10.46,12.31l10.4-12.31h3.58v25.88h-4v-19.25l-9.55,10.69
		H256.45z"/>
	<path class="st0" d="M293.95,180.73h-13.05l-2.1,5.39h-4.27l10.67-25.88h4.38l10.69,25.88H296L293.95,180.73z M282,177.39h10.75
		l-5.34-12.67L282,177.39z"/>
	<path class="st0" d="M306.85,164h-8.56v-3.75h21.06V164h-8.52v22.13h-3.98V164z"/>
	<path class="st0" d="M327.29,186.12h-4v-25.88h4V186.12z"/>
	<path class="st0" d="M345.95,159.86c7.87,0,13.7,5.64,13.7,13.46c0,7.76-5.83,13.19-13.7,13.19c-7.74,0-13.57-5.43-13.57-13.19
		C332.38,165.5,338.21,159.86,345.95,159.86z M345.95,182.71c5.7,0,9.51-3.79,9.51-9.43c0-5.62-3.81-9.62-9.51-9.62
		c-5.55,0-9.34,4-9.34,9.62C336.61,178.92,340.4,182.71,345.95,182.71z"/>
	<path class="st0" d="M368.75,186.12h-4v-25.88h4l16.52,19.72v-19.72h4v25.88h-4.04l-16.48-19.53V186.12z"/>
	<path class="st0" d="M411.94,161.27l-0.34,3.79c-1.77-0.99-4.59-1.56-7.05-1.56c-3.39,0-5.6,1.16-5.6,3.68
		c0,2.71,2.11,3.11,4.17,3.72l3.79,1.12c3.81,1.13,6.27,2.86,6.27,6.69c0,4.46-3.79,7.8-9.32,7.8c-3.51,0-7.51-0.76-9.38-1.79
		l0.34-3.68c1.89,0.9,5.68,1.79,8.58,1.79c3.11,0,5.47-1.33,5.47-3.81c0-2.08-1.11-2.92-3.62-3.62l-4.15-1.16
		c-3.07-0.88-6.44-2.54-6.44-6.54c0-4.72,3.45-7.83,9.41-7.83C407.56,159.86,409.92,160.49,411.94,161.27z"/>
</g>
<polygon class="st1" points="68.71,139.44 130.97,139.44 130.97,201.7 "/>
<polygon class="st1" points="80.21,190.94 104.53,190.94 80.21,166.61 "/>
<polygon class="st1" points="130.97,128.37 130.97,112.89 115.49,128.37 "/>
<polygon class="st1" points="68.71,112.89 68.71,128.37 84.19,128.37 "/>
<polygon class="st1" points="115.49,97.24 84.19,97.24 68.71,81.76 68.71,97.24 99.84,128.37 130.97,97.24 130.97,81.76 "/>
</svg>
